<?xml version="1.0" standalone="no"?><!DOCTYPE svg PUBLIC "-//W3C//DTD SVG 1.1//EN" "http://www.w3.org/Graphics/SVG/1.1/DTD/svg11.dtd"><svg t="1534821027374" class="icon" style="" viewBox="0 0 1024 1024" version="1.1" xmlns="http://www.w3.org/2000/svg" p-id="18671" xmlns:xlink="http://www.w3.org/1999/xlink" width="32" height="32"><defs><style type="text/css"></style></defs><path d="M512 12.8C236.544 12.8 12.8 236.544 12.8 512s223.744 499.2 499.2 499.2 499.2-223.744 499.2-499.2S787.456 12.8 512 12.8z m238.592 733.184c-5.632 6.656-14.336 11.264-23.552 11.264H295.936c-8.704 0-17.92-4.608-23.552-11.264-5.632-7.68-7.68-16.896-5.632-25.6 20.992-105.984 102.4-186.368 203.776-204.288C420.352 498.688 384 450.56 384 394.752c0-70.144 57.856-128 128-128s128 57.856 128 128c0 57.344-38.4 105.984-90.624 122.368 19.968 3.072 40.96 8.704 61.44 16.896 11.776 4.608 15.36 7.68 22.528 11.264 64.512 36.864 109.056 100.352 123.904 175.104 2.048 9.216 0 17.92-6.656 25.6z" fill="#FF4D4D" p-id="18672"></path></svg>