<?xml version="1.0" standalone="no"?><!DOCTYPE svg PUBLIC "-//W3C//DTD SVG 1.1//EN" "http://www.w3.org/Graphics/SVG/1.1/DTD/svg11.dtd"><svg t="1534820959489" class="icon" style="" viewBox="0 0 1024 1024" version="1.1" xmlns="http://www.w3.org/2000/svg" p-id="17262" xmlns:xlink="http://www.w3.org/1999/xlink" width="32" height="32"><defs><style type="text/css"></style></defs><path d="M554.187276 496.659185l203.265921 0 0 291.475661-203.265921 0 0-291.475661Z" p-id="17263" fill="#bfbfbf"></path><path d="M554.187276 381.603003l232.029967 0 0 88.209739-232.029967 0 0-88.209739Z" p-id="17264" fill="#bfbfbf"></path><path d="M233.94757 381.603003l232.029967 0 0 88.209739-232.029967 0 0-88.209739Z" p-id="17265" fill="#bfbfbf"></path><path d="M264.629218 496.659185l203.265921 0 0 291.475661-203.265921 0 0-291.475661Z" p-id="17266" fill="#bfbfbf"></path><path d="M512.00001 0C230.112364 0 0 230.112364 0 512.00001c0 281.887646 230.112364 512.00001 512.00001 512.00001 281.887646 0 512.00001-230.112364 512.00001-512.00001C1022.082416 230.112364 793.887655 0 512.00001 0zM512.00001 983.730356C251.205997 983.730356 38.352061 772.794022 38.352061 512.00001S251.205997 38.352061 512.00001 38.352061s473.647949 212.853937 473.647949 473.647949S772.794022 983.730356 512.00001 983.730356z" p-id="17267" fill="#bfbfbf"></path><path d="M379.6854 239.700379c-28.764045-13.423221-69.033709 1.917603-82.45693 30.681649-13.423221 28.764045-1.917603 70.951312 32.599252 86.292136 28.764045 13.423221 141.902624 38.352061 157.243449 9.588015C500.494391 337.498134 410.367049 253.1236 379.6854 239.700379zM433.378285 341.33334c-7.670412 15.340824-76.704121-11.505618-92.044946-17.258427-15.340824-7.670412-21.093633-23.011236-13.423221-38.352061 7.670412-15.340824 24.928839-15.340824 38.352061-7.670412C381.603003 283.805249 441.048697 325.992515 433.378285 341.33334z" p-id="17268" fill="#bfbfbf"></path><path d="M692.254695 356.674164c34.516855-17.258427 46.022473-57.528091 32.599252-86.292136l0 0c-13.423221-28.764045-53.692885-44.10487-82.45693-30.681649-28.764045 13.423221-120.808991 97.797755-105.468167 126.5618C550.35207 395.026225 663.490649 370.097385 692.254695 356.674164zM653.902634 278.05244c15.340824-7.670412 32.599252-5.752809 38.352061 7.670412 7.670412 15.340824 0 30.681649-13.423221 38.352061l0 0c-15.340824 7.670412-84.374533 32.599252-92.044946 17.258427C581.033719 325.992515 640.479413 283.805249 653.902634 278.05244z" p-id="17269" fill="#bfbfbf"></path></svg>