<?xml version="1.0" standalone="no"?><!DOCTYPE svg PUBLIC "-//W3C//DTD SVG 1.1//EN" "http://www.w3.org/Graphics/SVG/1.1/DTD/svg11.dtd"><svg t="1534764431400" class="icon" style="" viewBox="0 0 1024 1024" version="1.1" xmlns="http://www.w3.org/2000/svg" p-id="10144" xmlns:xlink="http://www.w3.org/1999/xlink" width="32" height="32"><defs><style type="text/css"></style></defs><path d="M516.931 518.932m-504.068 0a504.068 504.068 0 1 0 1008.136 0 504.068 504.068 0 1 0-1008.136 0Z" fill="#706655" p-id="10145"></path><path d="M581.5 129.5l-33 15L512 137h-71.5l-40.589 18.5-32.411 15-14 16-20 34-17 31v109s15 29 16 32 27 69 27 69l62 26 82 24.5s71-4.5 78-4.5 53-5 53-5l16-25 25-37 23-48 27-31v-90l4.817-15-9.817-13-5.54-10v-14l-11.46-12-8-14-6-18-20-3-14-16-16-1-24.007 1-17.993-17-4-10h-12z" fill="#7F4516" p-id="10146"></path><path d="M615.493 779.07c0 3.87-11.84 7.006-16.576 7.006H416.486c-4.736 0-16.576-3.136-16.576-7.006l12-97.101c0-3.87 13.839-19.006 18.576-19.006h154.431c4.736 0 18.576 16.136 18.576 20.006l12 96.101z" fill="#FFFFFF" p-id="10147"></path><path d="M222.105 780.076l-26.999 101.995 26.999 28.498 62.997 38.998 41.998 19.499 59.997 20.999 41.998 10.5 53.997 7.499h56.997l47.998-6 53.997-11.999 38.998-13.499 33.878-14.999 33.618-15 35.999-22.499 29.998-20.998 26.999-26.999-44.998-95.995-189.083-69.656-86.995 29.158-112.587-29.158z" fill="#1534CC" p-id="10148"></path><path d="M399.911 238.21L364.5 285.5v42l7 55 5 70.645-12-16.645-12-16-5-29-12-19-12-3-9 13-3 18 5 22 6 20 14 16 19.205 9 11.795 21 14 37 18.411 17 21.589 25 27 26v52h114v-56l22-18 22.993-21 16.007-24 16-36 14-33v-13.145l17-4.855 13-10 7-12 5-19v-23l-14-10-10 17-11 27-12 23-6 7-4-10 1-22 8-33 4-38 4-59-2-18-15-13-16 6-15.007 15-18.993 5-18 3-13 1-16 3-21.019-3-8.481-6-8.5-4-17-2-13-3-13-1-11 1h-11l-15-14-8-9.29h-15.589" fill="#EFD0B4" p-id="10149"></path></svg>