<?xml version="1.0" standalone="no"?><!DOCTYPE svg PUBLIC "-//W3C//DTD SVG 1.1//EN" "http://www.w3.org/Graphics/SVG/1.1/DTD/svg11.dtd"><svg xmlns:xlink="http://www.w3.org/1999/xlink" xmlns="http://www.w3.org/2000/svg" version="1.1" width="200" height="200" viewBox="0 0 200 200"><defs><style type="text/css"><![CDATA[
@font-face {
  font-family: "ifont";
  src: url("//at.alicdn.com/t/font_1442373896_4754455.eot?#iefix") format("embedded-opentype"), url("//at.alicdn.com/t/font_1442373896_4754455.woff") format("woff"), url("//at.alicdn.com/t/font_1442373896_4754455.ttf") format("truetype"), url("//at.alicdn.com/t/font_1442373896_4754455.svg#ifont") format("svg");
}

]]></style></defs><g class="transform-group"><g transform="scale(0.1953125, 0.1953125)"><path d="M896 704c-17.695686 0-31.99914 14.303454-31.99914 31.99914l0 128L160.00086 863.99914l0-128c0-17.695686-14.336138-31.99914-32.00086-31.99914s-32.00086 14.303454-32.00086 31.99914l0 160.00086c0 17.695686 14.336138 31.99914 32.00086 31.99914l768 0c17.695686 0 32.00086-14.303454 32.00086-31.99914l0-160.00086C928.00086 718.303454 913.695686 704 896 704zM796.421126 365.341003 537.311007 106.048542c-6.368176-6.39914-14.688778-9.471415-22.976697-9.407768-1.119849-0.096331-2.07972-0.639914-3.19957-0.639914-4.67206 0-9.024163 1.087166-13.023626 2.879613-4.032146 1.536138-7.87163 3.872168-11.136568 7.135385L227.645962 365.139739c-12.512727 12.480043-12.54369 32.735385-0.032684 45.248112 6.239161 6.271845 14.432469 9.407768 22.65674 9.407768 8.191587 0 16.352211-3.135923 22.624056-9.34412l206.239806-206.162398 0 563.712619c0 17.695686 14.336138 31.99914 32.00086 31.99914s32.00086-14.303454 32.00086-31.99914L543.1356 202.72028l207.91012 207.73982c6.240882 6.271845 14.496116 9.440452 22.687703 9.440452s16.319527-3.103239 22.560409-9.311437C808.868485 398.140035 808.901169 377.852009 796.421126 365.341003z" fill="#272636"></path></g></g></svg>