<?xml version="1.0" standalone="no"?><!DOCTYPE svg PUBLIC "-//W3C//DTD SVG 1.1//EN" "http://www.w3.org/Graphics/SVG/1.1/DTD/svg11.dtd"><svg t="1534840719530" class="icon" style="" viewBox="0 0 1024 1024" version="1.1" xmlns="http://www.w3.org/2000/svg" p-id="22284" xmlns:xlink="http://www.w3.org/1999/xlink" width="32" height="32"><defs><style type="text/css"></style></defs><path d="M512 510.8m-491.4 0a491.4 491.4 0 1 0 982.8 0 491.4 491.4 0 1 0-982.8 0Z" fill="#555555" p-id="22285"></path><path d="M315.4 363.4m-147.4 0a147.4 147.4 0 1 0 294.8 0 147.4 147.4 0 1 0-294.8 0Z" fill="#FFFFFF" p-id="22286"></path><path d="M312.1 306.3m-70.2 0a70.2 70.2 0 1 0 140.4 0 70.2 70.2 0 1 0-140.4 0Z" fill="#333333" p-id="22287"></path><path d="M708.6 363.4m-147.4 0a147.4 147.4 0 1 0 294.8 0 147.4 147.4 0 1 0-294.8 0Z" fill="#FFFFFF" p-id="22288"></path><path d="M712.2 301.4m-70.2 0a70.2 70.2 0 1 0 140.4 0 70.2 70.2 0 1 0-140.4 0Z" fill="#333333" p-id="22289"></path><path d="M750.8 740.9C690.6 673.2 604.4 633.6 512 633.6c-92.9 0-179.5 40-239.7 108.3-9 10.2-8 25.7 2.2 34.7 10.2 9 25.7 8 34.7-2.2 51-57.9 124.2-91.7 202.9-91.7 78.3 0 151.1 33.4 202.1 90.8 9 10.1 24.5 11.1 34.7 2s10.9-24.4 1.9-34.6z" fill="#FFFFFF" p-id="22290"></path></svg>