<?xml version="1.0" standalone="no"?><!DOCTYPE svg PUBLIC "-//W3C//DTD SVG 1.1//EN" "http://www.w3.org/Graphics/SVG/1.1/DTD/svg11.dtd"><svg t="1534767825163" class="icon" style="" viewBox="0 0 1024 1024" version="1.1" xmlns="http://www.w3.org/2000/svg" p-id="15807" xmlns:xlink="http://www.w3.org/1999/xlink" width="32" height="32"><defs><style type="text/css"></style></defs><path d="M723.968 346.112l-59.392-58.368-158.72 159.744-159.744-159.744-59.392 58.368 159.744 160.768-159.744 160.768 59.392 59.392 159.744-160.768 158.72 160.768 59.392-59.392-159.744-160.768z" fill="#FFFFFF" p-id="15808"></path><path d="M512 10.24c-277.504 0-501.76 224.256-501.76 501.76s224.256 501.76 501.76 501.76 501.76-224.256 501.76-501.76-224.256-501.76-501.76-501.76z m211.968 657.408l-59.392 59.392-158.72-159.744-158.72 159.744-59.392-59.392 159.744-160.768-160.768-160.768 59.392-59.392 158.72 159.744 158.72-159.744 59.392 59.392-159.744 160.768 160.768 160.768z" fill="#E6E6E6" p-id="15809"></path></svg>