<?xml version="1.0" standalone="no"?><!DOCTYPE svg PUBLIC "-//W3C//DTD SVG 1.1//EN" "http://www.w3.org/Graphics/SVG/1.1/DTD/svg11.dtd"><svg t="1535624631806" class="icon" style="" viewBox="0 0 1024 1024" version="1.1" xmlns="http://www.w3.org/2000/svg" p-id="5241" xmlns:xlink="http://www.w3.org/1999/xlink" width="64" height="64"><defs><style type="text/css"></style></defs><path d="M456.185199 817.159772H292.189753c-17.390512 0-34.100949-6.897913-46.439468-19.236432s-19.236433-29.048956-19.236433-46.439469V302.050854c0-17.390512 6.897913-34.100949 19.236433-46.439469 12.33852-12.33852 29.048956-19.236433 46.439468-19.236432h449.433017c17.390512 0 34.198102 6.897913 46.439469 19.236432 12.435674 12.435674 19.139279 28.854649 19.236433 46.439469l-1.068691 212.377989v0.097153c0.097154 13.310057 10.881214 23.996964 24.191271 23.996964s24.094118-10.686907 24.288425-23.89981l0.971537-212.475142v-0.097154c0-30.214801-12.047059-59.263757-33.420872-80.637571s-50.42277-33.420873-80.637572-33.420873H292.189753c-30.214801 0-59.263757 11.949905-80.637571 33.420873-21.373814 21.373814-33.420873 50.42277-33.323719 80.734725v449.433017c0 30.214801 11.949905 59.263757 33.323719 80.637571s50.42277 33.420873 80.637571 33.420873h163.995446c13.310057 0 24.191271-10.784061 24.191272-24.191272s-10.784061-24.288425-24.191272-24.288425z" fill="#A2A2A2" p-id="5242"></path><path d="M710.63074 406.005313c13.310057 0 24.191271-10.881214 24.191271-24.288425 0-13.310057-10.784061-24.288425-24.191271-24.288425l-387.254649-0.097154c-13.407211 0-24.191271 10.881214-24.191271 24.191272s10.784061 24.288425 24.191271 24.288425l387.254649 0.194307zM517.100569 551.055787c8.646679 0 16.613283-4.566224 20.9852-12.047058 4.274763-7.480835 4.274763-16.710436 0-24.191272s-12.33852-12.047059-20.9852-12.047059H323.473245c-13.310057 0-24.191271 10.784061-24.191272 24.191272 0 13.310057 10.784061 24.191271 24.191272 24.191271l193.627324-0.097154z m-193.627324 96.667932c-13.310057 0-24.191271 10.784061-24.191272 24.191272 0 13.310057 10.784061 24.191271 24.191272 24.191271h96.765085c8.646679 0.097154 16.710436-4.566224 21.082353-12.047059s4.371917-16.710436 0-24.288425c-4.371917-7.480835-12.33852-12.047059-21.082353-12.047059h-96.765085z" fill="#A2A2A2" p-id="5243"></path><path d="M790.19962 633.344972c-0.291461 0-0.680076 0-0.971537 0.097153l-4.663377 0.291461v77.72296c0 23.316888-17.487666 44.690702-41.581784 54.503226-26.231499 9.71537-56.932068 9.71537-85.300949 0-26.231499-9.71537-41.581784-31.089184-41.581783-54.503226v-78.111574h-21.859583v78.111574c0 33.032258 19.722201 62.275522 54.697533 71.990892 15.350285 5.829222 32.837951 9.71537 50.325617 9.71537s34.975332-1.943074 52.462998-9.71537c32.837951-11.658444 54.697533-40.804554 54.697533-71.990892v-78.111574h-16.224668z" fill="#A2A2A2" p-id="5244"></path><path d="M637.37685 611.971157c19.139279 0 38.375712 0.097154 57.514991 0.097154 37.209867-0.388615 74.322581-0.874383 111.532447-1.068691v-4.663377c0-7.772296-6.606452-13.601518-15.350284-13.601518H609.493738c-8.743833 0-15.350285 5.829222-15.350284 13.601518v5.537761c14.378748 0.097154 28.854649 0.097154 43.233396 0.097153z" fill="#A2A2A2" p-id="5245"></path><path d="M574.421252 691.928653v-33.032258h28.466035v-19.43074h-34.975333c-8.743833 0-15.350285 5.829222-15.350284 13.601518v38.86148c0 19.43074 10.978368 34.975332 30.603415 40.804554 6.606452 3.886148 13.11575 3.886148 19.722202 5.829222l4.371916-19.43074c-6.606452-1.943074-10.978368-1.943074-15.350285-3.886148-10.881214-3.788994-17.487666-13.601518-17.487666-23.316888z" fill="#A2A2A2" p-id="5246"></path><path d="M688.188235 783.350285h21.859583v34.878178h-21.859583z" fill="#A2A2A2" p-id="5247"></path><path d="M828.283871 639.465655h-34.975332v19.43074H821.677419v33.032258c0 9.71537-6.606452 19.43074-15.350284 23.316888-4.371917 1.943074-10.978368 3.886148-15.350285 3.886148l2.234535 19.43074c6.606452-1.943074 13.11575-1.943074 19.722201-5.829222 17.487666-7.772296 30.603416-23.316888 30.603416-40.804554v-38.86148c0-7.772296-6.509298-13.601518-15.253131-13.601518z" fill="#A2A2A2" p-id="5248"></path><path d="M688.188235 851.357875c0 2.040228 1.651613 3.691841 3.691841 3.69184h14.573055c2.040228 0 3.691841-1.651613 3.691841-3.69184 0-2.040228-1.651613-3.691841-3.691841-3.691841h-14.573055c-2.040228 0-3.691841 1.651613-3.691841 3.691841z" fill="#A2A2A2" p-id="5249"></path><path d="M775.820873 867.193928H622.706641c-6.606452 0-10.978368-3.983302-10.978368-9.909678s4.371917-9.909677 10.978368-9.909677h150.97685c6.606452 0 10.978368 3.983302 10.978369 9.909677-0.097154 5.926376-4.46907 9.909677-8.840987 9.909678zM727.632638 718.937381L699.263757 705.141556 670.797723 718.937381l4.371916-27.688804-21.859582-21.762429 30.603415-3.983302 15.350285-25.648577 15.350285 25.648577 30.603415 3.983302-21.859582 21.762429 4.274763 27.688804z" fill="#A2A2A2" p-id="5250"></path></svg>