<?xml version="1.0" standalone="no"?><!DOCTYPE svg PUBLIC "-//W3C//DTD SVG 1.1//EN" "http://www.w3.org/Graphics/SVG/1.1/DTD/svg11.dtd"><svg t="1537338268752" class="icon" style="" viewBox="0 0 1171 1024" version="1.1" xmlns="http://www.w3.org/2000/svg" p-id="2623" xmlns:xlink="http://www.w3.org/1999/xlink" width="146.375" height="128"><defs><style type="text/css"></style></defs><path d="M152.314478 566.889884a453.376428 450.042778 90 1 0 900.085555 0 453.376428 450.042778 90 1 0-900.085555 0Z" fill="#FFF9F9" p-id="2624"></path><path d="M228.988432 568.556709a378.369298 375.035648 90 1 0 750.071296 0 378.369298 375.035648 90 1 0-750.071296 0Z" fill="#FFF3F3" p-id="2625"></path><path d="M302.328737 568.556709a301.695343 300.028518 90 1 0 600.057037 0 301.695343 300.028518 90 1 0-600.057037 0Z" fill="#FFEDED" p-id="2626"></path><path d="M372.335391 568.556709a231.688689 230.021864 90 1 0 460.043728 0 231.688689 230.021864 90 1 0-460.043728 0Z" fill="#FFE8E8" p-id="2627"></path><path d="M55.638622 703.569542m-10.000951 0a10.000951 10.000951 0 1 0 20.001902 0 10.000951 10.000951 0 1 0-20.001902 0Z" fill="#FCE163" p-id="2628"></path><path d="M1105.738436 136.849008a1.833508 1.833508 0 0 1 1.833508 1.833507v15.234782a1.833508 1.833508 0 0 1-3.667016 0V138.682515a1.833508 1.833508 0 0 1 1.833508-1.833507z m21.63539 10.601007a1.833508 1.833508 0 0 1-0.266692 2.600248l-11.834458 9.567576a1.833508 1.833508 0 1 1-2.300219-2.833603l11.834458-9.600913a1.833508 1.833508 0 0 1 2.566911 0.266692z m5.400513 24.068955a1.800171 1.800171 0 0 1-2.200209 1.366796l-14.834743-3.33365a1.810172 1.810172 0 1 1 0.800076-3.533669l14.86808 3.33365a1.866844 1.866844 0 0 1 1.466806 2.166873z m-14.968089 19.201825a1.800171 1.800171 0 0 1-2.433565-0.866749l-6.6673-13.667966a1.856843 1.856843 0 1 1 3.33365-1.633488l6.6673 13.701302a1.833508 1.833508 0 0 1-0.800076 2.466901z m-24.135628 0a1.833508 1.833508 0 0 1-0.833412-2.466901l6.6673-13.701302a1.856843 1.856843 0 0 1 3.33365 1.633488l-6.6673 13.667966a1.800171 1.800171 0 0 1-2.400228 0.866749z m-14.968089-19.201825a1.866844 1.866844 0 0 1 1.366797-2.200209l14.868079-3.33365a1.833508 1.833508 0 0 1 2.20021 1.366796 1.800171 1.800171 0 0 1-1.366797 2.166873l-14.86808 3.33365a1.833508 1.833508 0 0 1-2.200209-1.366797z m5.400513-24.068955a1.833508 1.833508 0 0 1 2.566911-0.266692l11.967804 9.667586a1.833508 1.833508 0 0 1 0.266692 2.566911 1.800171 1.800171 0 0 1-2.56691 0.266692l-11.867795-9.500903a1.866844 1.866844 0 0 1-0.266692-2.600248z" fill="#EC6842" p-id="2629"></path><path d="M1155.509834 763.575246a1.833508 1.833508 0 0 1 1.833507 1.833508v9.567576a1.833508 1.833508 0 1 1-3.633678 0v-9.567576a1.833508 1.833508 0 0 1 1.800171-1.833508z m0 20.801977a1.800171 1.800171 0 0 1 1.833507 1.800171v9.567577a1.800171 1.800171 0 0 1-1.833507 1.833507 1.800171 1.800171 0 0 1-1.800171-1.833507v-9.567577a1.800171 1.800171 0 0 1 1.800171-1.800171z m16.468232-3.800361a1.900181 1.900181 0 0 1-1.833508 1.900181h-9.134202a1.900181 1.900181 0 0 1 0-3.800361h9.134202a1.900181 1.900181 0 0 1 1.833508 1.90018z m-20.001902 0a1.900181 1.900181 0 0 1-1.833507 1.900181h-9.134202a1.900181 1.900181 0 0 1 0-3.800361h9.134202a1.900181 1.900181 0 0 1 1.733498 1.90018z" fill="#EC673A" p-id="2630"></path><path d="M63.972747 410.208324a5.000475 5.000475 0 0 1 5.000476 5.000476v13.334601a5.000475 5.000475 0 0 1-10.000951 0v-13.334601a5.000475 5.000475 0 0 1 5.000475-5.000476z m0 36.670153a5.000475 5.000475 0 0 1 5.000476 5.000475v13.334601a5.000475 5.000475 0 0 1-10.000951 0v-13.334601a5.000475 5.000475 0 0 1 5.000475-5.000475z m8.334126-5.000476a4.633774 4.633774 0 0 1 4.167063-5.000475h11.667775a5.067148 5.067148 0 0 1 0 10.000951h-11.667775a4.633774 4.633774 0 0 1-4.167063-5.000476z m-36.670152 0a4.633774 4.633774 0 0 1 4.167062-5.000475h11.667776a5.100485 5.100485 0 0 1 0 10.000951h-11.667776a4.633774 4.633774 0 0 1-4.167062-5.000476z" fill="#3A9FEA" p-id="2631"></path><path d="M172.316379 66.842354m-10.000951 0a10.000951 10.000951 0 1 0 20.001902 0 10.000951 10.000951 0 1 0-20.001902 0Z" fill="#ED7457" p-id="2632"></path><path d="M1072.401934 380.205473a20.001901 18.335076 90 1 0 36.670152 0 20.001901 18.335076 90 1 0-36.670152 0Z" fill="#9DCCF9" p-id="2633"></path><path d="M959.857903 785.877366c-2.900276-1.700162-5.800551-3.33365-8.700827-4.967139l-1.633488 2.900276 8.66749 4.933802z m-17.468327-9.834268l-8.834173-4.76712-1.566816 2.966949 8.800837 4.700447z m-17.735019-9.400894l-8.934183-4.500428-1.466806 3.000286 8.900846 4.467091z m-17.968375-8.867509c-3.033622-1.466806-6.033907-2.866939-9.067528-4.267073l-1.400133 3.033622c3.000285 1.366797 6.033907 2.800266 9.034192 4.233736z m-18.235066-8.400799c-3.066958-1.366797-6.133916-2.66692-9.200875-3.967044l-1.300123 3.066959c3.033622 1.266787 6.10058 2.600247 9.134201 3.967043z m-18.435086-7.800741l-9.33422-3.733688-1.200114 3.133631 9.267547 3.667015z m-18.735114-7.267358c-3.133631-1.166778-6.267262-2.300219-9.43423-3.33365l-1.100105 3.133631 9.400894 3.33365z m-18.935133-6.6673c-3.33365-1.066768-6.367272-2.066863-9.53424-3.066958l-1.000095 3.166967 9.467567 3.066959z m-19.168489-6.00057c-3.33365-0.933422-6.433945-1.866844-9.634249-2.733594l-0.900085 3.333651c3.33365 0.866749 6.400608 1.800171 9.600912 2.733593z m-19.301834-5.300504c-3.33365-0.833413-6.467281-1.633489-9.734259-2.400228l-0.76674 3.33365c3.33365 0.76674 6.467281 1.566816 9.667586 2.400228z m-19.501854-4.633774c-3.33365-0.700067-6.6673-1.400133-9.834268-2.033527l-0.633394 3.33365c3.33365 0.633394 6.500618 1.33346 9.734259 2.033527z m-19.701873-3.900371c-3.33365-0.566721-6.6673-1.133441-10.00095-1.633488l-0.533385 3.33365c3.33365 0.533384 6.6673 1.066768 9.834269 1.666825z m-20.001901-3.133631l-10.000951-1.266787-0.366701 3.33365c3.33365 0.366702 6.6673 0.800076 10.00095 1.233451z m-20.001901-2.333555c-3.33365-0.333365-6.6673-0.600057-10.000951-0.866749l-0.266692 3.33365c3.33365 0.233356 6.6673 0.533384 10.000951 0.866749z m-20.001902-1.533479c-3.33365-0.200019-6.6673-0.366702-10.00095-0.466711v3.33365c3.33365 0 6.6673 0.266692 10.00095 0.466711z m-20.001901-0.733403h-10.00095v3.33365h10.00095z m-20.001901 0c-3.33365 0-6.6673 0.200019-10.000951 0.366701l0.166683 3.33365c3.33365-0.166683 6.6673-0.266692 10.000951-0.366701z m-20.001901 0.933422l-10.000951 0.800076 0.266692 3.33365c3.33365-0.300029 6.6673-0.533384 10.000951-0.76674z m-19.801882 1.733498l-1.700162 0.200019-8.234116 0.900085 0.333365 3.333651 8.267452-0.866749 1.700162-0.200019z m-19.835219 2.033526l-10.000951 0.833413 0.266692 3.33365 10.000951-0.833412z m-20.001901 1.600153l-10.000951 0.633393 0.200019 3.33365 10.000951-0.66673z m-20.001902 1.166777l-10.00095 0.466711 0.166682 3.33365 10.000951-0.466711z m-20.001901 0.866749l-10.00095 0.266692v3.33365l10.00095-0.300028z m-20.001901 0.500048h-10.000951v3.33365h10.000951z m-20.001901 0.200019h-10.000951v3.33365h10.000951z m-20.001901 0h-10.000951v3.33365h10.000951z m-20.001902-0.400038l-10.00095-0.300029v3.33365l10.00095 0.300029z m-20.001901-0.66673l-10.000951-0.466711v3.33365l10.000951 0.466711z m-20.001901-0.966759l-10.000951-0.600057-0.200019 3.33365 10.000951 0.600057z m-20.001901-1.266787l-10.000951-0.733403-0.266692 3.33365 10.000951 0.733403z m-20.001902-1.566816c-3.33365-0.266692-6.6673-0.566721-10.00095-0.900085l-0.300029 3.33365 10.000951 0.900086z m-20.001901-1.866844l-10.00095-1.066768-0.366702 3.33365 10.000951 1.066769z m-20.001901-2.233545l-10.000951-1.233451-0.433374 3.33365 10.00095 1.266787z m-19.335171-2.566911l-10.000951-1.466806-0.500047 3.33365 10.00095 1.466806z m-19.735209-3.033622l-10.000951-1.666825-0.600057 3.33365c3.33365 0.600057 6.6673 1.166778 10.000951 1.700162z m-19.668537-3.33365l-9.767595-1.966853-0.700066 3.33365 10.00095 1.966853z m-19.401844-4.300409c-3.33365-0.733403-6.6673-1.500143-9.700922-2.266882l-0.800076 3.33365 9.767595 2.300219z m-19.368507-4.733783l-9.600913-2.700257-0.933422 3.333651c3.133631 0.933422 6.367272 1.833508 9.667585 2.700256z m-19.101816-5.633869c-3.33365-1.066768-6.400608-2.166873-9.400894-3.33365l-1.133441 3.133631c3.033622 1.133441 6.200589 2.200209 9.500903 3.33365z m-18.668441-6.867319c-3.33365-1.33346-6.200589-2.66692-9.034192-4.033717l-1.43347 3.000285c2.866939 1.400133 5.967234 2.76693 9.200875 4.10039z m-17.801692-8.700827a95.409069 95.409069 0 0 1-8.234116-5.367177l-1.966854 2.66692a87.308299 87.308299 0 0 0 8.500808 5.567196z m-15.501474-11.734449a33.803213 33.803213 0 0 1-5.633869-7.700732l-2.966948 1.533479a37.1702 37.1702 0 0 0 6.167253 8.467472z m-8.600817-16.668251a82.307824 82.307824 0 0 1-1.600152-9.667586l-3.333651 0.333366a82.307824 82.307824 0 0 0 1.666825 10.00095z m-1.966854-19.53519a66.406312 66.406312 0 0 1 1.000095-9.700922l-3.33365-0.600057a73.340304 73.340304 0 0 0-1.033432 10.200969z m3.33365-19.201825a60.005704 60.005704 0 0 1 3.967044-8.86751l-2.933612-1.600152a60.439078 60.439078 0 0 0-4.200399 9.367557z m9.43423-16.934943a66.673004 66.673004 0 0 1 6.667301-7.167348l-2.266882-2.433565a64.13943 64.13943 0 0 0-6.967329 7.53405z m14.368033-13.334601a82.274487 82.274487 0 0 1 8.367462-5.133821l-1.600152-2.933613a88.375067 88.375067 0 0 0-8.667491 5.333841z m17.334981-9.400894c2.933612-1.233451 6.00057-2.366892 9.234211-3.33365l-1.033432-3.33365q-4.933802 1.600152-9.500903 3.500333z m18.668441-6.267262q4.700447-1.200114 9.700922-2.1002l-0.633394-3.33365c-3.33365 0.633394-6.6673 1.366797-10.00095 2.166873z m19.401844-3.667015c3.33365-0.433375 6.6673-0.833413 10.000951-1.133441l-0.300029-3.333651c-3.33365 0.333365-6.6673 0.700067-10.00095 1.166778z m19.701873-1.833508c3.33365-0.166683 6.6673-0.300029 10.00095-0.366701v-3.333651c-3.33365 0-6.6673 0.200019-10.00095 0.366702z m20.001901-0.400038c3.33365 0 6.6673 0 10.000951 0.233356v-3.333651c-3.33365 0-6.6673-0.200019-10.000951-0.233355z m20.001901 0.733403c3.33365 0.200019 6.6673 0.433375 10.000951 0.733403l0.266692-3.33365c-3.33365-0.300029-6.6673-0.533384-10.000951-0.733403z m20.001901 1.666825l10.000951 1.100105 0.400038-3.33365c-3.33365-0.400038-6.6673-0.800076-10.000951-1.133442z m19.801883 2.400228c3.33365 0.433375 6.6673 0.933422 10.00095 1.43347l0.533384-3.33365c-3.33365-0.533384-6.6673-1.033432-10.00095-1.466806z m19.768545 3.066959c3.33365 0.533384 6.6673 1.100105 10.000951 1.733498l0.600057-3.333651-10.000951-1.733498z m19.6352 3.567005l9.767595 2.00019 0.66673-3.33365-9.800931-2.00019z m19.501854 4.067053l9.734258 2.20021 0.76674-3.333651-9.800932-2.200209z m19.501853 4.500428c3.33365 0.76674 6.433945 1.533479 9.700923 2.366892l0.800076-3.33365-9.700923-2.400228z m19.368508 4.900466l9.667586 2.533574 0.866749-3.33365-9.700922-2.533574z m19.201825 5.133821l9.600913 2.700257 0.933422-3.33365-9.667586-2.700257z m19.335171 5.367177c3.33365 0.900086 6.467281 1.733498 9.667586 2.566911l0.833413-3.33365-9.634249-2.533574z m19.401845 4.933803c3.33365 0.800076 6.6673 1.533479 9.767595 2.266882l0.733403-3.333651c-3.33365-0.700067-6.467281-1.466806-9.734259-2.233545z m19.601863 4.333745l10.00095 1.90018 0.600058-3.33365-9.800932-1.90018z m19.768546 3.633678c3.33365 0.566721 6.6673 1.066768 10.00095 1.53348l0.500048-3.333651-10.000951-1.500142z m20.001901 2.86694c3.33365 0.433375 6.6673 0.800076 10.00095 1.133441l0.333365-3.33365c-3.33365-0.333365-6.6673-0.733403-10.00095-1.133442z m20.001901 2.033526c3.33365 0.266692 6.6673 0.500048 10.000951 0.66673l0.200019-3.33365c-3.33365 0-6.6673-0.400038-10.000951-0.66673z m20.001901 1.100105h10.000951v-3.33365h-10.000951z m20.001901 0c3.33365 0 6.6673-0.233356 10.000951-0.400038v-3.33365c-3.33365 0.166683-6.6673 0.300029-10.000951 0.400038z m20.001902-1.100105c3.33365-0.300029 6.6673-0.633394 10.00095-1.000095l-0.400038-3.33365q-4.900466 0.600057-10.00095 1.000095z m20.001901-2.333555c3.33365-0.533384 6.6673-1.066768 10.000951-1.700161l-0.633394-3.333651c-3.33365 0.600057-6.500618 1.166778-9.800932 1.666825z m19.835219-3.733688c3.33365-0.733403 6.6673-1.533479 9.767595-2.366892l-0.833413-3.33365c-3.33365 0.833413-6.400608 1.633489-9.667585 2.366892z m19.501853-5.167158c3.33365-0.966759 6.400608-2.033527 9.567576-3.133631l-1.100104-3.133631c-3.133631 1.066768-6.267262 2.1002-9.43423 3.100294z m19.068479-6.6673q4.700447-1.866844 9.300885-3.900371l-1.366797-3.033622c-3.033622 1.33346-6.067243 2.600247-9.167538 3.833698z m18.235067-8.134107c3.000285-1.500143 5.967234-3.066958 8.900846-4.66711l-1.600152-2.933612c-2.900276 1.600152-5.833888 3.133631-8.800837 4.633774z m17.63501-9.734258c2.866939-1.766835 5.700542-3.567006 8.500808-5.43385l-1.866844-2.76693c-2.733593 1.833508-5.533859 3.633679-8.367462 5.33384z m16.668251-11.234402c2.700257-2.00019 5.367177-4.033717 8.00076-6.133916l-2.100199-2.600247c-2.566911 2.066863-5.200494 4.067053-7.867415 6.033907z m15.768165-12.634534c2.500238-2.200209 5.000475-4.433755 7.43404-6.6673l-2.266882-2.400228c-2.433565 2.266882-4.867129 4.500428-7.367367 6.6673z m14.668061-13.867985q3.33365-3.533669 6.900656-7.300694l-2.466901-2.266882c-2.233546 2.466901-4.500428 4.900466-6.667301 7.234021z m13.53462-14.934753c2.133536-2.533574 4.267072-5.133821 6.333935-7.800741l-2.633583-2.066863c-2.033527 2.633584-4.133726 5.200494-6.233926 7.734068z m12.434515-15.868175c1.966854-2.700257 3.900371-5.43385 5.800551-8.234116l-2.766929-1.866844c-1.866844 2.733593-3.767025 5.467186-5.733879 8.134107z m11.334411-16.668251c1.800171-2.833603 3.533669-5.667205 5.267167-8.567481l-2.866939-1.700161c-1.700162 2.866939-3.33365 5.700542-5.200494 8.467471z m10.300979-17.334981c1.600152-2.900276 3.33365-5.867224 4.76712-8.867509l-2.966949-1.533479c-1.533479 2.966949-3.100295 5.900561-4.700447 8.7675z m9.334221-17.901701c0.933422-1.966854 1.900181-3.967044 2.833602-5.967234l-3.000285-1.400133-2.833603 5.900561z" fill="#3A9FEA" p-id="2634"></path><path d="M964.791705 798.678583a8.334126 8.334126 0 1 1 8.334126-8.334126 8.334126 8.334126 0 0 1-8.334126 8.334126z m0-3.33365a5.000475 5.000475 0 1 0-5.000475-5.000476 5.000475 5.000475 0 0 0 5.000475 5.000476z" fill="#3A9FEA" p-id="2635"></path><path d="M524.273472 779.259585a331.698195 93.342206 15 1 0 48.317481-180.323294 331.698195 93.342206 15 1 0-48.317481 180.323294Z" fill="#EF686D" p-id="2636"></path><path d="M523.849793 780.910227c-177.916911-47.671198-311.129574-126.678708-297.428271-178.050257s168.6827-53.171721 346.699621-5.500523 311.16291 126.84539 297.428271 178.083594-168.78271 53.138384-346.699621 5.467186z m0.866749-3.33365c175.950058 47.137814 329.564659 45.204297 342.499222-3.133631s-119.077985-126.84539-295.06138-173.983204-329.531323-45.237633-342.499221 3.133631 119.077985 126.9454 295.061379 174.11655z" fill="#5A2224" p-id="2637"></path><path d="M544.957157 701.992504a215.020438 86.674905 15 1 0 44.866232-167.443059 215.020438 86.674905 15 1 0-44.866232 167.443059Z" fill="#F8C8CB" p-id="2638"></path><path d="M544.551761 703.569542c-115.51098-30.96961-199.1856-93.87559-186.451056-141.413441s116.677757-60.205723 232.188737-29.236113 199.1856 93.87559 186.451055 141.413442-116.677757 60.272396-232.188736 29.236112z m0.866749-3.33365c113.877491 30.536236 216.05387 18.068384 228.088347-26.86922s-70.206673-106.676807-184.084164-137.346389-216.05387-18.068384-228.088347 26.902557 70.206673 106.976835 184.084164 137.479735z" fill="#5A2224" p-id="2639"></path><path d="M568.165694 621.925408a116.677757 66.673004 15 1 0 34.512486-128.802353 116.677757 66.673004 15 1 0-34.512486 128.802353Z" fill="#FBE0E2" p-id="2640"></path><path d="M571.220962 624.39535c-63.806065-13.567956-109.443736-54.271825-101.542985-91.442025s66.13962-55.805304 130.012358-42.237348 109.443736 54.271825 101.542985 91.442025-66.206293 55.805304-130.012358 42.237348z m0.700067-3.33365c62.239249 13.334601 118.577938-4.800456 126.011978-39.670438s-36.670152-74.273727-99.009411-87.474981-118.577938 4.800456-126.011978 39.670438 36.736825 74.307063 99.009411 87.541654z" fill="#5A2224" p-id="2641"></path><path d="M601.043797 492.722834l23.295548-86.941597 6.440612 1.726831-23.295548 86.941597z" fill="#5A2224" p-id="2642"></path><path d="M627.993025 405.00783m-11.667775 0a11.667776 11.667776 0 1 0 23.335551 0 11.667776 11.667776 0 1 0-23.335551 0Z" fill="#3A9FEA" p-id="2643"></path><path d="M710.267512 348.369113l-4.300408 2.433565a83.541274 83.541274 0 0 0-111.643946-32.869791l-2.300218-4.400418a88.44174 88.44174 0 0 1 118.244572 34.803308z m-20.001901 10.901036l-4.333745 2.366892a60.605761 60.605761 0 0 0-81.341065-24.769021l-2.233546-4.333745a65.5729 65.5729 0 0 1 87.808347 26.669201z m-18.601768 10.000951l-4.400418 2.233546a39.637101 39.637101 0 0 0-53.338403-17.034953l-2.266883-4.400418a44.50423 44.50423 0 0 1 60.005704 19.201825z" fill="#3A9FEA" p-id="2644"></path><path d="M835.912789 418.309094a17.334981 17.334981 0 0 1 5.267167-4.467091 22.335456 22.335456 0 0 1 6.200589-0.633393 57.905504 57.905504 0 0 1 3.567006-8.667491q2.066863-3.867034 3.600342-6.6673a16.001521 16.001521 0 0 1 3.700352 7.567386c0.633394 3.033622 1.166778 5.967234 1.600152 8.834173a54.971892 54.971892 0 0 1 5.833888 2.00019 11.667776 11.667776 0 0 1 4.133726 4.600437l-11.067719-1.066768a54.738536 54.738536 0 0 1-4.300408 12.467852c-1.43347 2.033527-4.700447 3.33365-6.10058 0a36.936844 36.936844 0 0 1-1.066768-13.334601z" fill="#3A9FEA" p-id="2645"></path><path d="M66.272966 168.385339L31.336312 158.817763l-0.866749 3.200304 34.903317 9.567576 0.900086-3.200304zM103.87654 157.98435l19.801883-35.73673-2.900276-1.600152-19.801882 35.73673 2.900275 1.600152zM120.17809 195.254559l30.502899 12.9679 1.33346-3.100295-30.502899-12.934563-1.33346 3.066958zM85.608137 160.584597l-11.767785-24.268973-3.000285 1.466806 11.767785 24.268973 3.000285-1.466806zM109.843774 171.018922l26.902557-2.300218-0.300028-3.300314-26.869221 2.266882 0.266692 3.33365zM12.701207 228.657734a16.668251 16.668251 0 0 0-7.667395 22.268784l58.772253 120.511455a16.668251 16.668251 0 0 0 22.268783 7.667395l69.373261-33.836549a16.668251 16.668251 0 0 0 7.667395-22.268784L104.343251 202.48858a16.668251 16.668251 0 0 0-22.302119-7.667395z m-1.466806-3.000285l69.373261-33.836549a20.001901 20.001901 0 0 1 26.669202 9.234211l58.838926 120.478118a20.001901 20.001901 0 0 1-9.234211 26.669202l-69.339925 33.836549a20.001901 20.001901 0 0 1-26.669201-9.200874L2.033527 252.393324a20.001901 20.001901 0 0 1 9.200874-26.735875z" fill="#EDF1F4" p-id="2646"></path><path d="M11.967804 267.928134l101.242957-51.604905-1.800171-3.333651L10.167633 264.394465z m144.313718 41.570618l-97.742624 49.804734 1.800171 3.533669L158.081693 313.032421z" fill="#EDF1F4" p-id="2647"></path><path d="M1004.462143 42.440034a61.605856 61.605856 0 0 1 47.137814-36.236778l40.003802-6.167253a3.700352 3.700352 0 0 1 4.200399 3.333651l4.433755 39.403745a61.672529 61.672529 0 0 1-20.735304 53.338403l-40.437177 35.336692-4.300409 62.639288a3.667015 3.667015 0 0 1-3.900371 3.33365 3.700352 3.700352 0 0 1-3.000285-2.00019l-24.168964-47.037805-9.567576-2.400228a5.133821 5.133821 0 0 0-2.833602 0 4.967139 4.967139 0 0 0-3.100295 6.333936 18.535095 18.535095 0 0 1-6.267262 21.001996l-38.837025 28.936084a3.633679 3.633679 0 0 1-5.633869-4.167063l16.668251-46.671103a18.068384 18.068384 0 0 1 16.934943-11.867795h2.233545a4.967139 4.967139 0 0 0 1.566816-0.233355 5.000475 5.000475 0 0 0 3.33365-6.333935l-2.466901-6.833983-50.871502-8.234116a3.667015 3.667015 0 0 1-3.033622-4.2004 3.700352 3.700352 0 0 1 2.500238-2.933612l58.072187-18.168393z m-79.140856 71.540133c-0.266692 0.433375 0 0.600057 0 0.633394l52.871692 8.567481 3.000285 9.067529a8.334126 8.334126 0 0 1-5.33384 10.534334 8.467472 8.467472 0 0 1-2.600247 0.400038h-2.233546a14.701397 14.701397 0 0 0-13.801312 9.667586l-16.834933 46.671103c0.300029 0.466711 0.400038 0.433375 0.500048 0.366701l38.837024-28.936084a15.034762 15.034762 0 0 0 5.233831-16.86827 8.434135 8.434135 0 0 1 5.067149-10.967709 8.667491 8.667491 0 0 1 4.700446-0.200019l11.034382 2.76693 24.869031 48.371264c0.433375 0.200019 0.600057 0 0.633394 0l4.467091-64.206103 41.603954-36.336787a58.305542 58.305542 0 0 0 19.6352-50.471464l-4.567101-39.537091q-0.400038-0.300029-40.437177 5.867224a58.372215 58.372215 0 0 0-44.604239 34.269924l-22.535476 51.571569z" fill="#EDF1F4" p-id="2648"></path><path d="M1040.932276 1016.932662a16.668251 16.668251 0 0 0 30.269544-10.234307h-3.33365a13.334601 13.334601 0 0 1-24.202301 8.167443zM1023.297267 896.38787l-2.366892 3.867034 2.966949-0.866749z m4.833792 1.800171l-4.033716-2.033526 1.066768 2.900275z m-2.966948 0.866749l32.869791 88.341731 3.33365-0.900086-34.036569-91.508698-7.167348 2.066863 19.601864 95.609088 3.33365-0.900085-18.96847-92.375448z m-1.066768-2.900275l4.033716 2.033526-2.966948 0.866749z m-0.800076 0.233355l-2.366892 3.867034 2.966949-0.866749z m34.736635 91.008651l3.33365-0.900086-34.036569-91.508698-7.167348 2.066863 19.601864 95.609088 3.33365-0.900085-18.96847-92.375448 1.266787-0.333365z" fill="#EDF1F4" p-id="2649"></path><path d="M1022.397181 897.72133a9.167538 9.167538 0 1 1 9.167538-9.167538 9.167538 9.167538 0 0 1-9.167538 9.167538z m0-3.33365a5.833888 5.833888 0 1 0-5.833888-5.833888 5.867224 5.867224 0 0 0 5.833888 5.833888zM1028.164396 935.891625c-39.570428 12.86789-67.373071 34.569953-62.605951 50.204772s42.304021 18.168394 83.67462 5.53386 71.240105-35.236683 66.306303-51.37155c-4.66711-15.201445-38.070285-17.968375-76.907311-7.500713l0.86675 3.33365c37.203536-10.000951 68.973223-7.400703 72.840256 5.233831 4.133726 13.334601-24.368983 35.07-64.072756 47.204487s-75.373831 10.20097-79.507558-3.33365 22.502139-33.73654 60.439078-46.071046z" fill="#EDF1F4" p-id="2650"></path><path d="M965.291753 985.563013c2.533574 8.300789 15.401464 18.501759 31.803023 25.002377a84.308014 84.308014 0 0 0 105.776721-32.336407c10.000951-14.568051 14.901416-30.236207 12.367842-38.536997l-3.33365 0.966759c2.166873 7.134011-2.533574 21.902082-11.967804 35.703394a80.941027 80.941027 0 0 1-101.776341 31.102956c-15.53481-6.167253-27.702633-15.768165-30.002852-22.902177z" fill="#EDF1F4" p-id="2651"></path><path d="M1058.667295 902.621796l-1.733498-0.833412a32.40308 32.40308 0 0 0-14.534715-42.770733l0.866749-1.733498a34.40327 34.40327 0 0 1 15.268118 45.337643z m-7.967424-3.967044l-1.700161-0.866749a23.568907 23.568907 0 0 0-10.234307-31.302975l0.900086-1.700162a25.502424 25.502424 0 0 1 11.034382 33.869886z m-7.300694-3.700351l-1.700161-0.900086a15.334791 15.334791 0 0 0-6.467282-20.768641l0.900086-1.700161a17.268308 17.268308 0 0 1 7.267357 23.335551zM987.860565 869.585323l1.633488 0.966758a32.369743 32.369743 0 0 0 10.634345 43.870837l-1.033432 1.633488a34.336597 34.336597 0 0 1-11.234401-46.471083z m7.567386 4.633773l1.633488 1.000095a23.53557 23.53557 0 0 0 7.43404 32.069715l-1.033431 1.633489a25.502424 25.502424 0 0 1-8.034097-34.703299z m6.933992 4.300409l1.633489 1.066768a15.334791 15.334791 0 0 0 4.633774 21.235352l-1.033432 1.633489a17.368318 17.368318 0 0 1-5.233831-23.935609z" fill="#EDF1F4" p-id="2652"></path></svg>