<?xml version="1.0" standalone="no"?><!DOCTYPE svg PUBLIC "-//W3C//DTD SVG 1.1//EN" "http://www.w3.org/Graphics/SVG/1.1/DTD/svg11.dtd"><svg t="1535624562607" class="icon" style="" viewBox="0 0 1024 1024" version="1.1" xmlns="http://www.w3.org/2000/svg" p-id="3119" xmlns:xlink="http://www.w3.org/1999/xlink" width="64" height="64"><defs><style type="text/css"></style></defs><path d="M956.21 251.72666666666666H718.94c24.57-24.51 42.06-54 49.9-84.94C779 126.66666666666667 772 88.89666666666668 749.17 60.46666666666666S691 17.066666666666666 649.58 18.386666666666667c-38.71 1.21-78.5 16.7-112 43.65s-57.25 62.47-66.75 100.08c-8.28 32.73-5.16 63.91 8.65 89.65h-75.93a25.39 25.39 0 0 0-3.2-1.47 155.86 155.86 0 0 1-38.41-20.81c-25.85-19-44.48-44.17-52.44-70.79-7.23-24.12-4.57-46.28 7.38-62.53 19.06-26 60.06-33 102-17.67a25.32 25.32 0 0 0 17.41-47.56c-29.93-11-60.47-13.93-88.31-8.59-30.25 5.8-55.12 20.92-71.9 43.73-21.61 29.4-27 67.38-15.11 107.05 8.6 28.76 25.67 55.94 49.05 78.57H67.79A51.85 51.85 0 0 0 16 303.50666666666666v148.9a51.85 51.85 0 0 0 51.79 51.79H78.5v377.86a113.11 113.11 0 0 0 113 113h642.7a113.11 113.11 0 0 0 113-113V504.18666666666667h9a51.85 51.85 0 0 0 51.8-51.78V303.5166666666667a51.85 51.85 0 0 0-51.79-51.79z m-408-0.14A57.32 57.32 0 0 1 529.87 236.66666666666666c-12.64-15.68-16.21-37.81-10-62.17 6.82-26.95 24.36-52.86 49.38-73s54.1-31.65 81.89-32.56c25.12-0.8 45.91 7.46 58.54 23.19s16.21 37.81 10 62.17c-6.82 26.95-24.36 52.86-49.38 73a155.27 155.27 0 0 1-39.3 23.19 25.53 25.53 0 0 0-2.54 1.21h-80zM66.64 452.4066666666667V303.5166666666667a1.21 1.21 0 0 1 1.15-1.15h418.89v151.18H67.79a1.21 1.21 0 0 1-1.15-1.14z m62.5 429.64V504.18666666666667h357.54v440.2H191.47a62.4 62.4 0 0 1-62.33-62.33z m767.42 0a62.4 62.4 0 0 1-62.34 62.33h-296.9V504.18666666666667h359.23z m60.8-429.64a1.21 1.21 0 0 1-1.15 1.15H537.32V302.3666666666667h418.89a1.21 1.21 0 0 1 1.15 1.15z" p-id="3120" fill="#bfbfbf"></path></svg>