<?xml version="1.0" standalone="no"?><!DOCTYPE svg PUBLIC "-//W3C//DTD SVG 1.1//EN" "http://www.w3.org/Graphics/SVG/1.1/DTD/svg11.dtd"><svg t="1534764085022" class="icon" style="" viewBox="0 0 1024 1024" version="1.1" xmlns="http://www.w3.org/2000/svg" p-id="8190" xmlns:xlink="http://www.w3.org/1999/xlink" width="32" height="32"><defs><style type="text/css"></style></defs><path d="M511.966021 511.966021m-511.966021 0a511.966021 511.966021 0 1 0 1023.932041 0 511.966021 511.966021 0 1 0-1023.932041 0Z" fill="#F9F5F1" p-id="8191"></path><path d="M463.158593 761.729592h109.939963v90.523177h-109.939963z" fill="#FFDBB3" p-id="8192"></path><path d="M709.395288 876.030746c-18.961704-16.610453-49.300432-28.670097-84.645049-36.406472a517.389068 517.389068 0 0 0-111.532746-10.580631A565.286334 565.286334 0 0 0 414.123626 838.107337c-41.71575 7.812222-77.401678 20.516564-99.776489 37.923409-16.724223 12.969806-26.546386 56.505879-32.348668 93.481203a512.686565 512.686565 0 0 0 465.585691-2.920102c-9.063695-35.837621-22.374811-76.832827-38.188872-90.561101z" fill="#FFDBB3" p-id="8193"></path><path d="M709.395288 876.030746c-18.961704-16.610453-49.300432-28.670097-84.645049-36.406472-8.11561-1.7824-22.754045-4.285345-22.754046-4.285345s-51.158679 59.918986-80.738937 60.108603-90.295637-60.108603-90.295637-60.108603-12.818112 2.085787-16.6863 2.806332c-41.71575 7.812222-77.401678 20.516564-99.776489 37.923409-16.724223 12.969806-26.546386 56.505879-32.348668 93.481203a512.686565 512.686565 0 0 0 465.585692-2.920103c-9.215388-35.875545-22.526505-76.87075-38.340566-90.599024z" fill="#BC561C" p-id="8194"></path><path d="M427.548512 833.253141l63.635481 103.113749 26.92562-40.957282-54.95102-88.399466-35.610081 26.242999zM521.105562 895.409608l26.925621 40.957282 59.881062-107.399094-34.813689-21.957654-51.992994 88.399466z" fill="#FFFFFF" p-id="8195"></path><path d="M518.109613 973.000903m-6.484903 0a6.484903 6.484903 0 1 0 12.969806 0 6.484903 6.484903 0 1 0-12.969806 0Z" fill="#FFFFFF" p-id="8196"></path><path d="M518.109613 921.46299m-6.484903 0a6.484903 6.484903 0 1 0 12.969806 0 6.484903 6.484903 0 1 0-12.969806 0Z" fill="#FFFFFF" p-id="8197"></path><path d="M512.724489 140.885464A288.862606 288.862606 0 0 0 223.748113 429.785993C223.748113 589.291851 353.180707 796.391588 512.724489 796.391588s288.862606-206.948043 288.862606-366.453901a288.862606 288.862606 0 0 0-288.862606-289.052223z" fill="#FFDBB3" p-id="8198"></path><path d="M717.928055 162.843118c-109.219418-62.346084-213.92595-92.798582-311.161571-42.663835S256.096781 235.125135 242.937358 280.026452 215.70835 372.825033 212.37109 404.756544c-4.095728 37.923409 0 152.983032 0 152.983031h37.544175s12.097567-116.045631 23.626284-152.983031C288.217908 357.162665 342.486306 262.581683 378.361851 235.125135s119.003657 32.462438 217.035669 57.378118 141.302622 66.97274 159.278318 112.253291c14.297125 35.913468 22.374811 152.983032 22.374811 152.983031h38.909418v-152.983031s11.187406-179.567341-98.032012-241.913426z" fill="#603913" p-id="8199"></path><path d="M230.688097 508.363297a51.044908 51.044908 0 0 0-36.254779 62.421931c7.205448 27.266931 38.681877 56.885113 65.948808 49.527972s39.971273-48.428193 32.765825-75.846818a51.044908 51.044908 0 0 0-62.459854-36.103085zM793.243945 508.363297a51.044908 51.044908 0 0 0-62.421931 36.292702c-7.205448 27.266931 5.498894 68.451753 32.765825 75.846818s58.705437-22.261041 65.948808-49.527972a51.044908 51.044908 0 0 0-36.292702-62.611548z" fill="#FFDBB3" p-id="8200"></path><path d="M346.733728 506.656743m-24.422675 0a24.422675 24.422675 0 1 0 48.84535 0 24.422675 24.422675 0 1 0-48.84535 0Z" fill="#231F20" p-id="8201"></path><path d="M672.26827 506.656743m-24.422675 0a24.422675 24.422675 0 1 0 48.845351 0 24.422675 24.422675 0 1 0-48.845351 0Z" fill="#231F20" p-id="8202"></path><path d="M604.006134 630.628367a4.019881 4.019881 0 0 0-4.702503 3.22349c-0.341311 1.7824-9.253312 44.142848-82.066257 44.142848h-0.189617c-61.132535 0-81.687023-43.194763-82.559261-45.090933a4.019881 4.019881 0 0 0-7.319218 3.33726c0.910162 2.009941 23.36082 49.717589 89.878479 49.793436h0.227541c79.828776 0 89.575092-48.655734 89.954326-50.741522a4.019881 4.019881 0 0 0-3.22349-4.664579z" fill="#603913" p-id="8203"></path></svg>