<?xml version="1.0" standalone="no"?><!DOCTYPE svg PUBLIC "-//W3C//DTD SVG 1.1//EN" "http://www.w3.org/Graphics/SVG/1.1/DTD/svg11.dtd"><svg xmlns:xlink="http://www.w3.org/1999/xlink" xmlns="http://www.w3.org/2000/svg" version="1.1" width="200" height="200" viewBox="0 0 200 200"><defs><style type="text/css"><![CDATA[
@font-face {
  font-family: "ifont";
  src: url("//at.alicdn.com/t/font_1442373896_4754455.eot?#iefix") format("embedded-opentype"), url("//at.alicdn.com/t/font_1442373896_4754455.woff") format("woff"), url("//at.alicdn.com/t/font_1442373896_4754455.ttf") format("truetype"), url("//at.alicdn.com/t/font_1442373896_4754455.svg#ifont") format("svg");
}

]]></style></defs><g class="transform-group"><g transform="scale(0.1953125, 0.1953125)"><path d="M856.832 931.392 188.48 931.392c-58.922667 0-106.645333-47.722667-106.645333-106.645333L81.834667 230.058667c0-58.922667 47.722667-106.688 106.645333-106.688l668.330667 0c58.922667 0 106.688 47.765333 106.688 106.688L963.498667 824.746667C963.498667 883.669333 915.733333 931.392 856.832 931.392L856.832 931.392zM927.317333 262.357333c0-58.88-47.722667-106.645333-106.645333-106.645333L224.661333 155.712c-58.922667 0-106.688 47.765333-106.688 106.645333l0 530.048c0 58.922667 47.765333 106.688 106.688 106.688l596.010667 0c58.922667 0 106.645333-47.765333 106.645333-106.688L927.317333 262.357333 927.317333 262.357333zM308.629333 288.661333l-42.666667 0c-10.922667 0-19.754667-8.874667-19.754667-19.754667L246.208 69.696c0-10.922667 8.832-19.754667 19.754667-19.754667l42.666667 0c10.922667 0 19.754667 8.832 19.754667 19.754667l0 199.232C328.405333 279.808 319.552 288.661333 308.629333 288.661333L308.629333 288.661333zM555.2 288.661333l-42.666667 0c-10.922667 0-19.754667-8.874667-19.754667-19.754667L492.778667 69.696c0-10.922667 8.832-19.754667 19.754667-19.754667l42.666667 0c10.922667 0 19.754667 8.832 19.754667 19.754667l0 199.232C574.954667 279.808 566.122667 288.661333 555.2 288.661333L555.2 288.661333zM784.149333 288.661333l-42.666667 0c-9.258667 0-16.810667-7.552-16.810667-16.853333L724.672 66.752c0-9.258667 7.552-16.810667 16.810667-16.810667l42.666667 0c9.301333 0 16.853333 7.552 16.853333 16.810667l0 205.077333C800.981333 281.130667 793.450667 288.661333 784.149333 288.661333L784.149333 288.661333zM246.208 453.930667l0-91.818667 123.264 0 0 91.818667L246.208 453.930667 246.208 453.930667zM451.690667 453.930667l0-91.818667 123.264 0 0 91.818667L451.690667 453.930667 451.690667 453.930667zM677.696 453.930667l0-91.818667 123.285333 0 0 91.818667L677.696 453.930667 677.696 453.930667zM246.208 600.853333 246.208 509.013333l123.264 0 0 91.84L246.208 600.853333 246.208 600.853333zM451.690667 600.853333 451.690667 509.013333l123.264 0 0 91.84L451.690667 600.853333 451.690667 600.853333zM677.696 600.853333 677.696 509.013333l123.285333 0 0 91.84L677.696 600.853333 677.696 600.853333zM246.208 747.754667l0-91.818667 123.264 0 0 91.818667L246.208 747.754667 246.208 747.754667zM451.690667 747.754667l0-91.818667 123.264 0 0 91.818667L451.690667 747.754667 451.690667 747.754667zM677.696 747.754667l0-91.818667 123.285333 0 0 91.818667L677.696 747.754667 677.696 747.754667z" fill="#272636"></path></g></g></svg>